<svg xmlns="http://www.w3.org/2000/svg" viewBox="0 0 97.34 115.92"><defs><style>.cls-1{fill:#fff;}</style></defs><g id="Capa_2" data-name="Capa 2"><g id="Capa_1-2" data-name="Capa 1"><path class="cls-1" d="M67.62,98.55c-.56-.45,2.43-2.91,2.16-3.51a5.62,5.62,0,0,1-.1-2.22,11.51,11.51,0,0,0-1.53-6.11c-2.23-3.74-5.69-5.44-9.77-6l-8.54,8.63-4.18-4.23,5.17-5.22a14.64,14.64,0,0,1-7.38-4.47l-7.62,4.44-3-5.18,7.28-4.24a22.79,22.79,0,0,1-1.95-6.94c-.07-.54-.28-.6-.72-.6h-19c-.21,0-.42,0-.68,0,0,.45,0,.83,0,1.22a76.33,76.33,0,0,1-1.2,14.78c-.45,2.41-1,4.82-1.19,7.26-.28,3.08-.29,6.2-.39,9.3a2.89,2.89,0,0,0,.27,1.22c1.23,2.64,2.5,5.26,3.72,7.91a1.65,1.65,0,0,1,0,.83,23.92,23.92,0,0,0-.42,3.11A7.69,7.69,0,1,0,33.7,106c0-.13-.09-.35,0-.39.61-.45,1-1.25,1.9-1.25,4.24,0,8.48,0,12.73,0a3,3,0,0,1,2.41.92.88.88,0,0,1,.27.87,13.34,13.34,0,0,0-.2,3,7.66,7.66,0,0,0,14.67,2.06c.13-.3.24-.6.38-.95a6.75,6.75,0,0,0-.06-4.72,6.62,6.62,0,0,0-2.67-3.17l4.53-3.82-3.33,3.35,3.33-3.35ZM26.27,111.86A3.74,3.74,0,1,1,30,108.15,3.69,3.69,0,0,1,26.27,111.86Zm32.11,0a3.74,3.74,0,1,1,3.71-3.73A3.69,3.69,0,0,1,58.38,111.86Zm2.49-12.35a2.19,2.19,0,0,1-2.15.88,7,7,0,0,0-5.1,1.64l-.19.14-.15,0c-.61-.53-1.23-1.08-1.87-1.59a1.21,1.21,0,0,0-.7-.26q-8.39,0-16.77,0a1.16,1.16,0,0,0-.68.27c-.65.52-1.26,1.07-1.88,1.6a7.77,7.77,0,0,0-9.35-.63l-1.88-4H62.69C62,98.32,61.4,98.87,60.87,99.51Z"/><path class="cls-1" d="M91.59,16.37C85.76,7.24,73.7-1.89,60.23.34A28.57,28.57,0,0,0,45.38,8l8,15.06L43.79,51.43,51,53.85l1-3.07,17.57,3L72,58.33C83.63,57,93.13,49.88,96.26,40.19,99.8,29.23,93.68,19.64,91.59,16.37ZM69,38a2.75,2.75,0,1,1,1.73,3.49A2.75,2.75,0,0,1,69,38ZM58.29,20.3A2.75,2.75,0,1,1,60,23.79,2.75,2.75,0,0,1,58.29,20.3ZM54.46,43.51l3.77-11.17q3.45,6.49,6.88,13Z"/><path class="cls-1" d="M16.66,16.2A16.67,16.67,0,1,0,33.33,32.87,16.66,16.66,0,0,0,16.66,16.2Zm1.21,1a1.53,1.53,0,1,1-1.53,1.53A1.54,1.54,0,0,1,17.87,17.23ZM2.4,34a1.53,1.53,0,1,1,1.53-1.53A1.54,1.54,0,0,1,2.4,34ZM17.87,48.6a1.53,1.53,0,1,1,1.53-1.53A1.52,1.52,0,0,1,17.87,48.6Zm-1.21-4A11.79,11.79,0,1,1,28.45,32.87,11.77,11.77,0,0,1,16.66,44.65ZM31.25,32.87a1.54,1.54,0,1,1,1.53-1.54A1.53,1.53,0,0,1,31.25,32.87Z"/></g></g></svg>