<svg xmlns="http://www.w3.org/2000/svg" viewBox="0 0 121.35 119.04"><defs><style>.cls-1{fill:#fff;}</style></defs><g id="Capa_2" data-name="Capa 2"><g id="Capa_1-2" data-name="Capa 1"><path class="cls-1" d="M116.53,80.07c-1.25-1,5.39-6.55,4.78-7.89s-.23-3.3-.22-5a26,26,0,0,0-3.4-13.72c-4.94-8.38-12.59-12.2-21.62-13.5L77.15,59.34l-9.27-9.49L79.33,38.13A32.36,32.36,0,0,1,63,28.09l-16.88,10L39.55,26.44l16.13-9.53A52,52,0,0,1,51.35,1.34C51.2.14,50.74,0,49.75,0c-14,0-28.06,0-42.09,0-.48,0-.94.06-1.51.1,0,1,0,1.86,0,2.72A174.05,174.05,0,0,1,3.5,36C2.5,41.43,1.35,46.84.87,52.31.25,59.24.22,66.22,0,73.19a6.36,6.36,0,0,0,.61,2.73c2.72,5.93,5.52,11.82,8.24,17.75A3.74,3.74,0,0,1,9,95.56c-.29,2.33-.95,4.66-.92,7,.19,10.13,10.13,18.18,19.83,16.22,10.19-2.06,16-11.54,13.53-21.94-.07-.3-.21-.79-.09-.88,1.35-1,2.15-2.82,4.2-2.81,9.4,0,18.8.09,28.2,0a6.55,6.55,0,0,1,5.34,2,2,2,0,0,1,.62,2,29.19,29.19,0,0,0-.45,6.77,17.26,17.26,0,0,0,14.39,15,17,17,0,0,0,18.11-10.37c.28-.66.53-1.33.84-2.11a15.39,15.39,0,0,0-.14-10.6,14.8,14.8,0,0,0-5.93-7.12l10-8.56-7.38,7.52,7.38-7.52ZM24.92,109.92a8.39,8.39,0,1,1,8.25-8.32A8.24,8.24,0,0,1,24.92,109.92Zm71.13,0a8.39,8.39,0,1,1,8.22-8.36A8.22,8.22,0,0,1,96.05,109.92Zm5.54-27.7a4.9,4.9,0,0,1-4.78,2,15.32,15.32,0,0,0-11.29,3.66,4.35,4.35,0,0,1-.43.32,1.37,1.37,0,0,1-.33.11c-1.36-1.18-2.72-2.42-4.15-3.57a2.63,2.63,0,0,0-1.53-.58q-18.58-.06-37.15,0a2.64,2.64,0,0,0-1.52.61c-1.43,1.16-2.79,2.39-4.16,3.59-6.62-5.16-13.47-5.63-20.73-1.42l-4.15-8.87h94.24C104.16,79.53,102.76,80.78,101.59,82.22Z"/></g></g></svg>